<svg id="Capa_1" enable-background="new 0 0 511.636 511.636" height="512" viewBox="0 0 511.636 511.636" width="512" xmlns="http://www.w3.org/2000/svg"><path d="m105.598 110.262h107.25v29.979h-107.25z"/><path d="m105.598 169.336h107.25v29.979h-107.25z"/><path d="m105.598 226.138h107.25v29.979h-107.25z"/><path d="m296.377 110.262h107.25v29.979h-107.25z"/><path d="m296.377 169.336h107.25v29.979h-107.25z"/><path d="m296.377 226.138h107.25v29.979h-107.25z"/><path d="m511.636 87.594s-41.863-7.341-47.555-8.25v-18.442l-10.358-3.365c-61.121-19.858-136.761-20.434-198.675-1.688-29.574-8.959-62.685-13.678-96.131-13.678-.141 0-.284 0-.424 0-35.345.042-70.312 5.356-101.122 15.366l-10.357 3.365v28.904c-5.617.892-47.014 8.058-47.014 8.058v313.801l17.334-2.746c100.561-15.927 203.026-21.742 304.767-17.321 8.418 44.282 47.41 77.867 94.105 77.867 45.806 0 84.2-32.32 93.591-75.352h1.839zm-53.643 271.089c-1.444-15.341-5.028-29.881-10.504-42.903 16.305 8.846 28.458 24.386 32.79 42.903zm-105.86 0c4.332-18.518 16.486-34.058 32.793-42.904-5.476 13.023-9.06 27.563-10.504 42.904zm-82.096-12.428c18.134-4.975 37.693-8.23 57.84-9.655-3.305 7.844-5.595 16.216-6.702 24.953-17.031-.716-34.08-1.155-51.138-1.308zm134.539 12.428c1.692-14.349 5.712-27.747 11.631-38.923 5.919 11.176 9.939 24.574 11.632 38.923zm23.365 29.978c-1.626 14.702-5.685 28.443-11.733 39.862-6.048-11.419-10.108-25.16-11.733-39.862zm46.252-277.042c2.416.462 4.865.93 7.464 1.41v190.765c-5.327-4.993-11.22-9.387-17.576-13.07v-180.984c3.401.596 6.662 1.219 10.112 1.879zm-40.091-28.692v196.635c-5.8-1.101-11.781-1.684-17.896-1.684-26.323 0-50.198 10.674-67.53 27.918-27.189.2-53.937 3.451-78.639 9.496v-232.573c51.584-14.22 112.553-14.145 164.065.208zm-357.109.001c51.202-14.253 111.794-14.329 163.066-.207v232.567c-25.827-6.331-53.802-9.607-81.999-9.501-27.889.095-55.537 3.471-81.067 9.84zm-47.014 40.385c2.341-.425 13.611-2.529 17.035-3.12v235.967l19.636-6.402c53.181-17.339 118.624-18.534 173.409-3.503v14.008c-70.293.722-140.597 6.204-210.08 16.402v-253.352zm322.154 265.348h22.203c1.342 15.205 4.782 29.642 10.081 42.615-16.049-8.891-27.998-24.292-32.284-42.615zm95.865 42.614c5.298-12.973 8.739-27.409 10.081-42.614h22.2c-4.286 18.322-16.234 33.722-32.281 42.614z"/></svg>